HIERARCHY
ROOT hip
{
  OFFSET 0 0 0
  CHANNELS 6 Xposition Yposition Zposition Zrotation Yrotation Xrotation
  JOINT abdomen
  {
    OFFSET 0 20.6881 -0.73152
    CHANNELS 3 Zrotation Xrotation Yrotation
    JOINT chest
    {
      OFFSET 0 11.7043 -0.48768
      CHANNELS 3 Zrotation Xrotation Yrotation
      JOINT neck
      {
        OFFSET 0 22.1894 -2.19456
        CHANNELS 3 Zrotation Xrotation Yrotation
        JOINT head
        {
          OFFSET -0.24384 7.07133 1.2192
          CHANNELS 3 Zrotation Xrotation Yrotation
          JOINT leftEye
          {
            OFFSET 4.14528 8.04674 8.04672
            CHANNELS 3 Zrotation Xrotation Yrotation
            End Site
            {
              OFFSET 1 0 0
            }
          }
          JOINT rightEye
          {
            OFFSET -3.6576 8.04674 8.04672
            CHANNELS 3 Zrotation Xrotation Yrotation
            End Site
            {
              OFFSET 1 0 0
            }
          }
        }
      }
      JOINT rCollar
      {
        OFFSET -2.68224 19.2634 -4.8768
        CHANNELS 3 Zrotation Xrotation Yrotation
        JOINT rShldr
        {
          OFFSET -8.77824 -1.95073 1.46304
          CHANNELS 3 Zrotation Xrotation Yrotation
          JOINT rForeArm
          {
            OFFSET -28.1742 -1.7115 0.48768
            CHANNELS 3 Zrotation Xrotation Yrotation
            JOINT rHand
            {
              OFFSET -22.5879 0.773209 7.07136
              CHANNELS 3 Zrotation Xrotation Yrotation
              JOINT rThumb1
              {
                OFFSET -1.2192 -0.487915 3.41376
                CHANNELS 3 Zrotation Xrotation Yrotation
                JOINT rThumb2
                {
                  OFFSET -3.37035 -0.52449 3.41376
                  CHANNELS 3 Zrotation Xrotation Yrotation
                  End Site
                  {
                    OFFSET -1.78271 -1.18214 1.43049
                  }
                }
              }
              JOINT rIndex1
              {
                OFFSET -7.75947 0.938293 5.60832
                CHANNELS 3 Zrotation Xrotation Yrotation
                JOINT rIndex2
                {
                  OFFSET -2.54057 -0.884171 1.56538
                  CHANNELS 3 Zrotation Xrotation Yrotation
                  End Site
                  {
                    OFFSET -1.62519 -0.234802 1.16502
                  }
                }
              }
              JOINT rMid1
              {
                OFFSET -8.24714 1.18213 3.41376
                CHANNELS 3 Zrotation Xrotation Yrotation
                JOINT rMid2
                {
                  OFFSET -3.10165 -0.590103 1.0647
                  CHANNELS 3 Zrotation Xrotation Yrotation
                  End Site
                  {
                    OFFSET -2.48547 -0.328903 0.83742
                  }
                }
              }
              JOINT rRing1
              {
                OFFSET -8.82822 0.546677 1.51678
                CHANNELS 3 Zrotation Xrotation Yrotation
                JOINT rRing2
                {
                  OFFSET -2.60934 -0.819778 -0.0198488
                  CHANNELS 3 Zrotation Xrotation Yrotation
                  End Site
                  {
                    OFFSET -2.33842 -0.294052 0.168128
                  }
                }
              }
              JOINT rPinky1
              {
                OFFSET -8.27202 -0.0477905 -0.4584
                CHANNELS 3 Zrotation Xrotation Yrotation
                JOINT rPinky2
                {
                  OFFSET -1.82734 -0.647385 -0.700984
                  CHANNELS 3 Zrotation Xrotation Yrotation
                  End Site
                  {
                    OFFSET -1.69225 -0.51767 -0.607171
                  }
                }
              }
            }
          }
        }
      }
      JOINT lCollar
      {
        OFFSET 2.68224 19.2634 -4.8768
        CHANNELS 3 Zrotation Xrotation Yrotation
        JOINT lShldr
        {
          OFFSET 8.77824 -1.95073 1.46304
          CHANNELS 3 Zrotation Xrotation Yrotation
          JOINT lForeArm
          {
            OFFSET 28.1742 -1.7115 0.48768
            CHANNELS 3 Zrotation Xrotation Yrotation
            JOINT lHand
            {
              OFFSET 22.5879 0.773209 7.07136
              CHANNELS 3 Zrotation Xrotation Yrotation
              JOINT lThumb1
              {
                OFFSET 1.2192 -0.487915 3.41376
                CHANNELS 3 Zrotation Xrotation Yrotation
                JOINT lThumb2
                {
                  OFFSET 3.37035 -0.52449 3.41376
                  CHANNELS 3 Zrotation Xrotation Yrotation
                  End Site
                  {
                    OFFSET 1.78271 -1.18214 1.43049
                  }
                }
              }
              JOINT lIndex1
              {
                OFFSET 7.75947 0.938293 5.60832
                CHANNELS 3 Zrotation Xrotation Yrotation
                JOINT lIndex2
                {
                  OFFSET 2.54057 -0.884171 1.56538
                  CHANNELS 3 Zrotation Xrotation Yrotation
                  End Site
                  {
                    OFFSET 1.62519 -0.234802 1.16502
                  }
                }
              }
              JOINT lMid1
              {
                OFFSET 8.24714 1.18213 3.41376
                CHANNELS 3 Zrotation Xrotation Yrotation
                JOINT lMid2
                {
                  OFFSET 3.10165 -0.590103 1.0647
                  CHANNELS 3 Zrotation Xrotation Yrotation
                  End Site
                  {
                    OFFSET 2.48547 -0.328903 0.83742
                  }
                }
              }
              JOINT lRing1
              {
                OFFSET 8.82822 0.546677 1.51678
                CHANNELS 3 Zrotation Xrotation Yrotation
                JOINT lRing2
                {
                  OFFSET 2.60934 -0.819778 -0.0198488
                  CHANNELS 3 Zrotation Xrotation Yrotation
                  End Site
                  {
                    OFFSET 2.33842 -0.294052 0.168128
                  }
                }
              }
              JOINT lPinky1
              {
                OFFSET 8.27202 -0.0477905 -0.4584
                CHANNELS 3 Zrotation Xrotation Yrotation
                JOINT lPinky2
                {
                  OFFSET 1.82734 -0.647385 -0.700984
                  CHANNELS 3 Zrotation Xrotation Yrotation
                  End Site
                  {
                    OFFSET 1.69225 -0.51767 -0.607171
                  }
                }
              }
            }
          }
        }
      }
    }
  }
  JOINT rButtock
  {
    OFFSET -8.77824 4.35084 1.2192
    CHANNELS 3 Zrotation Xrotation Yrotation
    JOINT rThigh
    {
      OFFSET 0 -1.70687 -2.19456
      CHANNELS 3 Zrotation Xrotation Yrotation
      JOINT rShin
      {
        OFFSET 0 -36.8199 0.73152
        CHANNELS 3 Zrotation Xrotation Yrotation
        JOINT rFoot
        {
          OFFSET 0.73152 -45.1104 -5.12064
          CHANNELS 3 Zrotation Xrotation Yrotation
          End Site
          {
            OFFSET -1.1221 -3.69964 12.103
          }
        }
      }
    }
  }
  JOINT lButtock
  {
    OFFSET 8.77824 4.35084 1.2192
    CHANNELS 3 Zrotation Xrotation Yrotation
    JOINT lThigh
    {
      OFFSET 0 -1.70687 -2.19456
      CHANNELS 3 Zrotation Xrotation Yrotation
      JOINT lShin
      {
        OFFSET 0 -36.8199 0.73152
        CHANNELS 3 Zrotation Xrotation Yrotation
        JOINT lFoot
        {
          OFFSET -0.73152 -45.1104 -5.12064
          CHANNELS 3 Zrotation Xrotation Yrotation
          End Site
          {
            OFFSET 1.1221 -3.69964 12.103
          }
        }
      }
    }
  }
}
MOTION
Frames: 8
Frame Time:	0.008333333333333333
48.5694 84.6836 -80.7318 0.3459 -3.6695 4.3334 -10.9639 -8.8483 4.0568 2.9301 0.4004 1.6242 -16.9738 -11.444 -3.8599 21.2167 -4.8556 0.6279 0.0034 -0.0028 -0.0022 0.0022 0.0001 -0.0008 0.0055 0.0045 -0.001 54.392 41.8455 5.2391 -18.3569 -10.5203 30.8721 -0.2214 -20.4884 -3.0046 -0.0021 -0.0038 0.0016 -0.0044 -0.0095 -0.0005 0.0048 0.0065 -0.0086 7.7285 5.4788 0.4121 -0.0016 0.001 -0.0025 2.9062 0.9625 0.1055 0.0008 0.0013 0.0028 10.2782 0.7327 0.0174 -0.014 -0.0032 0.0133 2.2292 -0.7344 -0.2055 0.0011 0.0004 -0.0088 -84.0808 30.5954 2.0382 10.2187 -3.5062 -3.7151 -1.845 38.7788 -3.5335 -0.0014 0.0041 0.0008 -0.0025 -0.008 -0.0068 -0.0024 0.001 -0.0045 -7.7358 5.4713 -0.4238 0.0025 -0.0029 -0.0013 -2.9066 0.9601 -0.0955 0.0039 -0.0094 -0.0019 -10.2749 0.73 -0.0277 -0.0021 -0.0032 0.0063 -2.2195 -0.7333 0.2081 0.0063 0.0043 0.0053 -0.9797 -19.667 -3.4255 14.4297 65.7101 5.6531 2.9939 20.6061 -18.188 0.0037 -0.0019 0.002 -5.3299 -35.1668 -0.0802 -4.4729 17.3898 8.7897 -0.5113 2.4662 0.3112 
48.6605 84.7914 -79.729 3.7574 -3.9862 8.9226 1.0695 -13.2169 5.692 3.3198 -2.2091 2.7733 -9.5938 -5.3015 -3.5982 17.2827 2.8675 -4.8913 -0.0034 0.006 -0.0006 -0.001 -0.0064 0.0003 0.0085 0.0068 0.0014 63.4674 41.5502 22.2613 -13.7245 -9.1278 30.7181 -0.7625 -26.0699 -1.448 0.0048 -0.0012 -0.0024 -0.0066 -0.0003 0.0012 -0.0011 0.0005 0.004 7.7298 5.4713 0.4157 -0.0071 -0.0009 -0.0077 2.906 0.9621 0.0966 -0.0021 0.0008 -0.0011 10.2725 0.7327 0.032 -0.006 -0.0029 0.0033 2.2248 -0.7407 -0.2069 0.0014 0.0053 0.0025 -78.0604 19.6695 27.8256 8.2895 1.1765 0.0161 -0.537 10.0075 -3.0163 0.002 0.0046 0.002 0.0056 0.0097 0.0019 -0.0047 -0.0006 0.0012 -7.736 5.4655 -0.4103 0.0069 -0.0053 -0.0012 -2.9151 0.9614 -0.0992 0.0098 -0.0001 0.0026 -10.2769 0.729 -0.0326 -0.0065 0.0061 0.0012 -2.224 -0.7317 0.2011 0.0042 -0.0075 -0.0039 -2.283 -23.4848 -5.0002 7.2215 61.1161 6.1349 -5.9336 19.8896 -20.4866 -0.0057 -0.0013 0.0014 -5.4805 -36.6691 15.8063 1.8513 27.9103 33.2365 0.3768 1.9649 2.8242 
48.7909 85.1744 -78.6519 2.6724 -3.6314 9.6586 -9.1189 -15.21 1.3012 2.1249 0.9951 1.8328 -8.9971 -6.4324 -3.7322 19.105 -2.6405 -5.8913 -0.0002 -0.0033 0.0023 -0.0074 0.0024 0.0059 0.0021 -0.0158 -0.0037 85.0862 41.946 12.9906 -24.2668 -9.8892 29.8659 0.0395 -20.3941 -2.7045 0.0059 -0.0036 0.005 0.0055 0.0026 -0.0118 -0.005 -0.002 -0.0008 7.734 5.4705 0.4156 0.0175 0.0015 0.0068 2.9059 0.9607 0.1039 0.0061 0.0019 -0.0022 10.2783 0.7329 0.0182 -0.0021 -0.0029 -0.0063 2.2236 -0.7368 -0.2138 -0.0081 0.0012 -0.0011 -64.3059 23.0553 17.4331 8.3247 -0.6013 -18.2105 0.8099 17.4923 -1.4337 0.0025 -0.0025 -0.0002 -0.0071 0.003 0.0012 0.0033 0.0023 0.0044 -7.735 5.4763 -0.419 -0.0071 0.0002 0.0016 -2.9125 0.9621 -0.1026 0.0001 -0.0031 0.0081 -10.2766 0.7291 -0.0159 -0.0014 0.0063 -0.0009 -2.2117 -0.7276 0.2127 0.0127 0.0041 -0.0012 -18.225 -24.1964 -6.5712 -18.4964 58.8656 6.0086 1.4287 2.7768 -9.816 0.0008 0.0017 -0.0081 -17.0807 -40.6065 23.2462 16.9168 32.2474 -8.915 -0.8517 4.253 2.6377 
48.94 85.3592 -77.5456 1.5722 -3.1403 6.9723 -7.2233 -8.1918 2.3413 1.4636 3.2293 -0.829 -8.5108 -6.8877 -3.761 15.5635 7.8893 -5.8293 -0.0061 0.0008 -0.0032 0.0087 -0.0069 -0.011 -0.0012 -0.0003 -0.0028 65.837 41.7902 7.721 -21.9417 -9.7598 29.5337 -0.1848 -36.6918 -2.0985 -0.0041 0.0055 -0.0043 -0.0067 -0.0031 -0.0052 -0.0078 0.002 0.0054 7.7253 5.4718 0.4218 -0.0027 0.0019 -0.0017 2.906 0.9606 0.1039 -0.0039 -0.0042 -0.0046 10.284 0.7327 0.0258 0.0004 0.0002 -0.0034 2.2207 -0.7418 -0.1998 0.0019 -0.0166 0.0049 -72.2226 10.7445 -0.9452 5.6381 0.028 -34.6043 -0.0538 13.0963 2.0192 0.0025 -0.0046 -0.0041 0.0078 -0.0025 -0.0052 0.0032 0.0013 0.0024 -7.733 5.4722 -0.4146 0.0013 -0.0023 0.0082 -2.917 0.9652 -0.1084 -0.0016 -0.0036 -0.0062 -10.2752 0.7267 -0.0257 -0.0019 -0.0112 0.0011 -2.2166 -0.7364 0.2114 0.0014 0.0049 -0.0022 1.0324 -23.9748 -5.1076 -2.2025 83.9758 6.9153 1.9394 23.4611 -12.0719 -0.0057 -0.0086 -0.0065 -6.5709 -13.2261 -2.3092 17.598 41.4436 -3.0716 0.9027 -8.5745 5.5258 
49.1184 85.3831 -76.5194 -0.6998 -2.486 6.4599 -0.3156 -2.6271 3.874 1.0723 2.7567 -0.0532 -10.8293 -7.0323 -3.6024 14.0184 -12.2766 -2.5195 -0.0026 -0.0055 0.0069 -0.0029 -0.0027 -0.002 0.0019 -0.0046 0.0036 60.5122 42.7478 -12.1768 -14.8054 -9.5291 28.5242 0.0888 -9.9793 -3.0575 0.0057 0.0047 0.008 0.0013 -0.0007 -0.0047 0.0014 -0.0051 0.0021 7.73 5.4681 0.4263 -0.0082 -0.0042 0.0056 2.9004 0.9632 0.1008 0.0012 -0.0076 0.0001 10.2776 0.7326 0.0275 0.0034 -0.0006 -0.0039 2.2262 -0.7475 -0.2076 0.01 0.0003 -0.0001 -79.7898 14.4324 5.7251 12.1849 1.3698 -12.6469 1.2875 23.3045 -3.2047 -0.0066 -0.001 0.0023 -0.0013 -0.0061 0.0004 -0.0092 0.0 0.0041 -7.7364 5.4821 -0.4175 -0.0035 0.0023 0.0071 -2.9113 0.9649 -0.1044 -0.0024 -0.001 0.0056 -10.2788 0.7364 -0.0244 0.0007 0.0031 0.0034 -2.2178 -0.7385 0.2164 0.0041 -0.003 -0.0051 -6.9923 -26.8464 -7.0615 -8.9253 75.9544 6.2449 0.9736 12.3618 -15.4591 0.0005 -0.0068 -0.0041 4.5194 -29.4783 -18.7586 0.2265 30.1473 -8.104 -1.6519 -11.3477 1.9076 
49.31 85.4005 -75.5388 2.0965 -2.3608 7.644 -8.8767 -6.3869 5.0152 5.2186 1.4113 -0.6356 -5.4152 -7.4445 -3.4485 14.2156 -0.9346 -4.8523 0.0093 0.0044 0.0018 0.0048 -0.0065 -0.0055 0.0057 0.0031 -0.0037 63.7715 42.863 6.7937 -21.4619 -9.9388 29.2661 -0.0948 -2.0007 -1.5363 0.0025 0.0007 0.0044 -0.0083 0.0 -0.0036 -0.0029 0.0038 -0.003 7.7294 5.4781 0.4137 -0.002 -0.009 -0.0037 2.9052 0.967 0.1073 0.0042 -0.0072 0.0001 10.2813 0.7328 0.0324 0.0001 -0.0067 -0.0003 2.2152 -0.7358 -0.2072 -0.0027 0.0009 0.0033 -93.7284 12.9919 3.0739 3.7742 -0.5953 18.2664 -0.8975 0.9412 -1.3477 0.0032 0.0005 0.0019 0.0073 -0.0124 -0.0019 -0.0019 0.0002 -0.0051 -7.7285 5.4732 -0.4149 -0.0042 0.0023 0.0045 -2.8963 0.9572 -0.0989 0.0063 -0.0093 0.001 -10.2787 0.7429 -0.0181 -0.0004 0.0035 -0.0025 -2.2269 -0.7308 0.2059 -0.0021 0.0042 0.0011 -9.351 -28.7021 -7.103 6.4872 82.2117 5.0398 -0.8658 20.434 -2.786 0.001 0.0004 0.0104 -0.494 -20.3319 4.0788 4.2678 9.3433 21.9567 2.0598 2.955 -4.6969 
49.4255 85.5438 -74.5369 -0.5015 -1.683 0.5663 -4.9921 -6.4322 3.5211 2.2119 4.1694 0.0643 -12.9531 -4.8574 -3.5627 18.4397 -18.9224 -3.1053 -0.0079 0.0004 0.0078 0.0 0.0059 -0.0039 0.0058 0.0051 -0.0004 61.2645 42.5556 6.4129 -16.5595 -9.6044 28.6879 -0.0213 -19.5003 -3.8222 0.0 0.0136 0.0098 -0.0 -0.0046 -0.0023 -0.0011 0.0025 0.0008 7.732 5.4751 0.4127 0.0011 0.0045 -0.0012 2.9065 0.9627 0.1103 -0.0099 -0.0069 -0.0007 10.2744 0.7328 0.0249 0.0018 -0.0014 -0.0065 2.2226 -0.7313 -0.2042 -0.0026 -0.0036 -0.0017 -82.3896 23.1588 -10.251 2.2967 -4.31 -19.8405 -1.9083 14.9748 -0.9096 0.0022 0.0049 0.0001 -0.0076 -0.0006 -0.0028 0.0006 0.0094 0.0031 -7.724 5.4699 -0.4186 -0.0056 -0.0021 -0.0009 -2.9018 0.9687 -0.1056 -0.0001 -0.0012 0.0027 -10.277 0.7356 -0.0305 -0.0042 -0.007 0.0003 -2.2227 -0.7415 0.2066 -0.0064 -0.0057 0.0049 -7.0712 -23.503 -8.3062 0.0691 57.3509 4.9332 -2.2108 -2.5337 -9.5241 -0.0033 -0.0053 -0.0073 -9.7979 -36.4022 0.3247 5.3313 17.5119 1.8261 1.3364 -20.1271 5.5855 
49.4764 85.5868 -73.5585 -2.0145 -1.303 1.8162 -0.0982 -2.5816 -1.7197 1.0069 1.7423 -0.7045 -8.5588 -0.236 -3.428 12.3109 4.1159 -2.5764 -0.0073 0.0082 0.0025 -0.0008 0.0082 0.0058 0.0027 0.0008 -0.0022 63.3136 42.6924 6.3222 -15.7595 -9.4564 28.9444 -0.3641 1.8439 -3.3707 -0.0095 -0.0083 -0.0087 0.0034 -0.0074 -0.0013 -0.0 -0.0065 0.0031 7.7312 5.4782 0.4072 0.0117 -0.0058 0.0043 2.9078 0.9701 0.1046 0.0041 -0.0025 -0.0006 10.2861 0.7327 0.0179 0.0026 -0.0023 -0.0036 2.2194 -0.7292 -0.2033 -0.0 -0.0034 -0.0009 -78.3253 23.5788 -1.8149 11.9974 -1.4072 -18.4027 -0.8533 0.7372 -3.3256 0.009 0.0024 -0.0042 0.0038 -0.003 0.0084 0.0036 0.0 0.0011 -7.7333 5.4685 -0.4184 0.0087 0.0028 -0.0068 -2.899 0.9684 -0.1029 -0.0035 0.0022 0.0084 -10.2849 0.7287 -0.0263 0.0007 -0.0016 0.0072 -2.2204 -0.7312 0.2178 -0.0021 0.0055 0.0005 -3.5767 -40.4543 -6.9605 11.0238 45.1256 5.0717 -1.2978 -12.1498 -18.5991 -0.0053 -0.0083 0.0018 -3.8488 -26.1836 20.2613 7.6751 39.5462 -31.517 0.5755 -7.378 7.8099 
